<?xml version="1.0" encoding="utf-8"?>
<!-- Generator: Adobe Illustrator 25.0.0, SVG Export Plug-In . SVG Version: 6.00 Build 0)  -->
<svg version="1.1" id="레이어_1" xmlns="http://www.w3.org/2000/svg" xmlns:xlink="http://www.w3.org/1999/xlink" x="0px"
	 y="0px" viewBox="0 0 16 16" style="enable-background:new 0 0 16 16;" xml:space="preserve">
<style type="text/css">
	.st0{fill:#2B2A29;}
</style>
<g>
	<path class="st0" d="M13.51,2.25h-0.67V1.58c0-0.37-0.3-0.67-0.67-0.67c-0.37,0-0.67,0.3-0.67,0.67v0.67H4.85V1.58
		c0-0.37-0.3-0.67-0.67-0.67c-0.37,0-0.67,0.3-0.67,0.67v0.67H2.85c-1.1,0-2,0.9-2,2v0.67v1.33v7.33c0,1.1,0.9,2,2,2h10.67
		c1.1,0,2-0.9,2-2V6.25V4.91V4.25C15.51,3.14,14.62,2.25,13.51,2.25z M14.51,13.58c0,0.55-0.45,1-1,1H2.85c-0.55,0-1-0.45-1-1V6.25
		h12.67V13.58z"/>
	<path class="st0" d="M7.95,12.41c-0.13,0-0.26-0.05-0.36-0.15l-2.1-2.17C5.3,9.9,5.3,9.58,5.5,9.39C5.7,9.2,6.02,9.2,6.21,9.4
		l1.69,1.74l1.89-2.53c0.17-0.22,0.48-0.27,0.7-0.1c0.22,0.17,0.27,0.48,0.1,0.7l-2.24,3c-0.09,0.12-0.22,0.19-0.37,0.2
		C7.97,12.41,7.96,12.41,7.95,12.41z"/>
</g>
</svg>
