<svg xmlns="http://www.w3.org/2000/svg" xml:space="preserve" style="enable-background:new 0 0 20 20" viewBox="0 0 20 20"><path d="M18.5 8.1c-.3-.3-.8-.3-1.1 0l-.9.9c-.2-1.1-.6-2.2-1.3-3.2-1.1-1.5-2.8-2.5-4.6-2.8C6.7 2.4 3 5 2.4 8.9c-.6 3.9 2 7.5 5.9 8.1.4.1.8.1 1.1.1 1.5 0 2.9-.5 4.2-1.4.4-.3.4-.8.2-1.1-.3-.4-.8-.4-1.1-.2-1.2.9-2.6 1.2-4.1 1-3-.5-5-3.3-4.6-6.3.5-3 3.3-5 6.3-4.6 1.5.2 2.7 1 3.6 2.2.5.7.8 1.5.9 2.3l-.9-.9c-.3-.3-.8-.3-1.1 0s-.3.8 0 1.1l2.3 2.3c.1.1.3.2.4.2.3 0 .5-.1.7-.2l2.3-2.3c.3-.2.3-.7 0-1.1z" style="fill:#666"/></svg>