<svg xmlns="http://www.w3.org/2000/svg" width="136.693" height="27.344" viewBox="0 0 136.693 27.344"><defs><style>.a{fill:#a7c53c;}.b{fill:#05a499;}.c{fill:#b5b906;}.d{fill:#7eae1c;}.e{fill:#008084;}.f{fill:#57a33a;}.g{fill:#5c9215;}.h{fill:#001952;}.i{fill:#3d9227;}</style></defs><path class="a" d="M34.011,20.7l-.033-.007-.062-.083h-.031l-.143-.17-.093-.089v-.027l-.062-.055v-.03h-.013l-.033-.048-.031-.008-.017-.03-.077-.029v-.014l-.062-.025v-.015l-.062-.027-.019-.03-.093-.047v-.013l-.046-.024-.016-.034-.062-.023-.017-.033h-.032l-.016-.032-.048-.023-.031-.048-.031-.007-.016-.03h-.033l-.061-.084-.032-.007-.127-.149-.03-.007v-.014l-.047-.04V19.35l-.127-.126V19.2l-.029-.02-.052-.07v-.032l.077-.086.034.007.03-.037.031,0,.016-.029h.048v-.013l.03.006.017-.027h.031l.016-.024h.031l.015-.028h.049L32.8,18.8l.033.009.016-.029.031.007.095-.085.049-.007v-.027l.094-.071.061-.032.017-.04.048-.021v-.03l.048-.021v-.029l.031-.009v-.029l.029-.007v-.031l.032-.007L33.4,18.3h.015l.016-.057.032-.008.016-.054.047-.007.047-.05.03.007.03-.038.032.008.016-.028h.033l.061-.061.034.007.109-.095.031,0,.017-.026.044-.021v-.031h.016l.063-.062.031.006v-.029l.031-.037.061-.033v-.014l.048-.023v-.027l.049-.022v-.031h.032v-.045l.033.006V17.5l.14-.089v-.039l.127-.033V17.3l.093-.027V17.25l.143-.06v-.031l.032.006.111-.141.031.008V17h.032v-.03l.032.006.062-.074v-.044l.048-.021.03-.08h.033l.029-.094h.031v-.058l.032,0v-.058h.032l.016-.07h.015l.016-.1h.014v-.031h.016V16.3H35.5v-.03h.017v-.073l.034-.008v-.1l.031-.008v-.129l.033-.01v-.248h.015v-.058h.016l-.034-.2v-.246l-.031-.02v-.129l-.033-.023v-.1l-.031-.02v-.073H35.5v-.031h-.018v-.059h-.016v-.043h-.017v-.028h-.015V14.6h-.017l-.016-.075-.032-.006v-.008h.03l.016.033h.032l.033.049.03.006.018.032.031.006.062.082h.03l.126.152.1.077.048.079.03.006.017.047.078.071v.028l.079.072v.028l.032.02v.031l.046.036v.03l.033.02v.029l.03.02.017.047H36.3l.962,1.065.03.018v.075l.033.021.016.046h.017l.22.254.03.007.033.048.031.008.047.065h.031l.048.067.03.006.1.116.2.21.065.083.267.28.016.03.063.027.015.033.062.023.019.034.611.6.032.007.047.079h.017v.028l.034.021v.014l.03.021v.03l.032.018v.031l.044.035.254.26.031.007.015.032h.031l.032.051h.031l.03.048h.031l.048.069h.032l.125.153.03.008v.012l.048.039v.028l.142.143.206.194v.013h.03v.017l.031.018.062.026.078.061.017.03.048.036.031.006.048.037.014.034.049.037H41l.03.037.016.031.252.25.362.365.031.034h.031l.016.032.8.738v.014l.048.037.466.515h.031l.064.086.03.006.017.03.093.089.064.07.079.1.062.084.048.065.034.047.046.1.062.083.033.063.016.031.049.1v.043H43.8l.018.062h.014v.044h.016v.029h.016v.044h.014v.044h.014v.042h.013l.1.436v.239h.019l-.012.37H44v.1H43.98v.071h-.016v.069h-.017v.057h-.014v.059h-.016v.045H43.9l-.016.1h-.017v.027h-.014v.043h-.016v.029h-.016v.044h-.017l-.028.08h-.016v.03h-.018V25.4h-.014v.031h-.015l-.03.083h-.016l-.016.04-.03.009-.016.054-.032.009v.026l-.046.023V25.65l-.046.021V25.7l-.059.033v.035l-.14.086-.123.107h-.03l-.044.05L43.057,26l-.031.037h-.032l-.033.036h-.03l-.013.025-.047.006v.016h-.063l-.015.023-.093.013-.015.025-.14.016v.014h-.063v.014l-.047-.009v.012h-.03v0l-.047-.01v.01l-.048-.008v.012l-.047,0v.012l-.046-.008v.013l-.064-.012v.017l-.061-.013v.016l-.077-.016v.016s-.466-.059-.652-.107-.659-.222-.659-.222l-.071-.024-.02-.006v-.015l-.083-.031v-.012l-.059-.027V25.8l-.048-.008v-.017l-.062-.024v-.015L40.3,25.71l-.016-.033-.093-.044v-.016l-.455-.285v-.008l-.064-.011V25.3l-.045-.009v-.014l-.047-.009v-.015l-.048-.024-.72-.491h-.031l-.065-.084-.03-.008-.438-.337v-.017l-.065-.023V24.25l-.046-.008v-.013l-.093-.046v-.017H38.01v-.014l-.062-.026-.017-.031-.092-.046-.019-.031-.03-.007V24l-.048-.023-.017-.032H37.7l-.031-.05-.032-.006-.016-.03-.033-.008-.062-.081H37.49l-.518-.427v-.015l-.094-.045v-.033h-.03v-.015h-.031v-.013l-.094-.047-.016-.03-.063-.028-.015-.031-.065-.026-.029-.049H36.5l-.017-.03-.032-.007-.033-.049s-.533-.42-.733-.609-.843-.762-.917-.842l-.062-.053v-.029l-.079-.073-.016-.046-.031-.049Z"/><path class="a" d="M22.72,17.3v.028l.124.083v.029l.13.081v.03l.048.009v.013l.016.033.048.051.032.006v.046h.033l.031.078H23.2v.03l.03.022v.042l.034.007v.028l.031.006.032.079h.033v.031l.033.007.079.129.032.007v.037l.125.1v.031h.034v.03l.081.044v.033h.03v.029l.111.064.016.03.047.01.018.034H24v.014l.048.024v.028l.063.013v.029l.079.045.225.273v.029l.031.007.175.192v.027l.035.006v.03l.047.009v.04l.031.006v.029l.21.14.062.056v.015l.031.006v.015l.034.006.014.029.048.012.016.03.047.01v.015l.064.027V19.8l.079.044v.029h.032v.031l.032.007.048.051v.029l.031.006v.03h.03l.082.087v.03l.03.006.254.223V20.4l.048.009v.027l.077.043V20.5l.049.01v.016l.066.026v.03l.064.01v.031l.11.034.018.033.062.012v.029l.079.014.016.033.08.015v.014l.048.011v.015l.062.01v.013l.116.024.016.032.174.033.017.033.159.029v.014l.045.007v.016l.079.016v.015h.032l.016.033.126.037v.031l.57.162.207.037v-.012l.033,0v0l.3.026v-.026l.284-.02v-.032h.045l-.012.008v.03l-.079.044-.092.067v.027l-.048.008-.107.1-.032-.006-.045.048h-.03l-.048.048-.032-.007-.03.037h-.03l-.017.024-.047,0v.014H28.19l-.014.025-.048.006V21.8l-.093.01-.016.027h-.06v.013h-.03v.015l-.032-.007v.013l-.091.013V21.9l-.048-.011V21.9l-.008.038-.03-.006L27.644,22l-.072-.009v.031l-.091.053-.141.117-.033-.006-.117.079-.185.086-.048.006v.014l-.03-.007-.018.027h-.062l-.015.023-.031-.005-.031.024-.031-.006v.014h-.031v.014l-.031-.006v.014l-.03-.005v.016l-.032-.007v.016l-.032-.006V22.5l-.093.01v.014l-.049-.009v.015l-.03-.006v.017l-.048-.01v.013l-.045.014v.015l-.047-.008v.015l-.048-.009v.013l-.217.09-.062.058h-.031l-.06.06h-.031l-.03.039-.031-.006-.03.036H25.7l-.016.027h-.062l-.015.025-.046.007v.014H25.5l-.014.023-.092.013v.013h-.03v.015l-.032-.006V23L25.3,23v.016l-.094.01v.013l-.047-.008v.014l-.03-.006v.016l-.043-.041v.016h-.032v.012L25,23.03v.015l-.046-.009v.015l-.295.117-.032-.006-.06.059-.031-.006-.031.039-.03-.007-.031.038-.032-.009L24.4,23.3l-.03-.007-.033.04h-.062l-.014.028H24.2l-.016.025-.093.011-.016.027-.046-.008-.015.023-.513.093-.062-.01v.013l-.062-.01v.013l-.062-.012v.016l-.06-.012v.015l-.08-.016v.016l-.074-.017v.016l-.124-.023v.012l-.575-.092V23.43L22.21,23.4v-.013l-.124-.023v-.015l-.093-.017v-.016L21.93,23.3v-.013l-.078-.014v-.016L21.68,23.2v-.016l-.047-.009V23.16l-.109-.035v-.014l-.032-.006V23.09l-.048-.009v-.014h-.031v-.015l-.045-.009v-.015L21.306,23v-.014l-.046-.007v-.015l-.094-.047V22.9h-.031v-.026l-.06-.024-.017-.033-.094-.046-.015-.031-.064-.026V22.7l-.048-.022-.015-.032-.034,0-.016-.03-.03-.007-.034-.048-.03-.007-.03-.048h-.031l-.034-.052-.047-.021-.14-.17h-.034l-.117-.15h-.029l-.079-.1v-.03l-.031-.019v-.015l-.032-.021V21.9l-.048-.037v-.03l-.047-.038v-.028l-.03-.019-.018-.047h-.015v-.027l-.033-.021-.014-.044h-.016l-.016-.061-.032-.02v-.049l-.031-.035v-.027H19.76v-.028h-.015v-.029h-.014l-.034-.092h-.015l-.017-.076h-.016v-.027h-.016V21.12h-.017l-.016-.061h-.015l-.034-.15h-.014v-.043H19.52v-.044h-.014l-.02-.1h-.013v-.056h-.014l-.019-.176.033-1.21h.015v-.043H19.5v-.078h.017l.044-.178h.016v-.029H19.6V18.91h.014l.016-.057h.016V18.81h.016l.017-.055h.015v-.044l.03-.009v-.028l.03-.022v-.01h.017v-.028h.017v-.029l.03-.008.014-.055.032-.008V18.49l.031-.009.016-.055.029-.007V18.39l.047-.02v-.03l.046-.02v-.028l.076-.042v-.03l.062-.032V18.16l.03-.024h.046v-.028l.031-.01.03-.037.076-.029V18l.031-.022h.031l.047-.05.031.007.06-.062.032.006.031-.037.03.006.03-.038h.032l.016-.026h.061l.015-.025.048-.007v-.008h.063l.014-.026.032.006.03-.023.031,0v-.015l.031.006v-.012h.032l.013-.025.046.007v-.013h.064v-.013l.048.009v-.014h.06V17.62l.048.009v-.014h.031V17.6h.2v-.017l.048.011V17.58l.048.01v-.014H21.9l.016-.024.031.006.029-.038.033.008.03-.038h.031l.031-.038.031.007.017-.027h.062l.016-.025.03.006.017-.026h.03l.016-.027.03.009.031-.024h.031v-.013h.034v0l.03.005.227-.057Z"/><path class="a" d="M27.755,14.826l-.044.048-.034.009v.028l-.032.026-.03-.008-.016.027h-.031v0l-.03-.006v.016l-.047-.009v.015l-.094.012V15h-.03v.014l-.089.01-.014.025H27.2l-.014.028-.031-.006-.016.026-.03-.006-.016.027-.032-.006-.015.024h-.032L27,15.161l-.075.021v.029l.066.042v.03l.126.1v.029l.033.006v.026l.031.009v.027l.032.007v.029h.032l.08.133h.031l.034.08.03,0v.03l.03.007.083.173.029.006.066.13.063.07.1.046v.032l.063.023v.031l.079.044v.035h.031v.03l.031.006v.029l.079.088.03.006v.029l.033.006v.039l.033.006.111.18.033.007v.03h.032v.043l.031.007.034.095h.015l.032.078h.032l.032.078.031.006.1.077v.027l.031.006v.029l.116.065v.029h.032l.048.082.031.006v.03h.032l.047.082.031.007v.03h.034l.048.117h.031v.05h.03l.051.11.031.007v.043l.03.006.018.046H29.3l.016.076.035.02v.042l.031.02v.044l.031.021.018.09.032.019v.059h.017l.016.075.03.008.019.149h.018v.031h.015v.086l.034.021.016.135.031.019L29.7,19l.032.007.031.123h.032l.017.1.032.007.019.15h.031l.052.518h-.016v.233H29.91v.1h-.017v.086l-.032.009-.013.117h-.032l-.075.233h-.033l-.125.21-.031.009h-.017v.042H29.5v.012L29.441,21l-.045.036v.043l-.116.038v.023h.026l.012-.024.033,0,.014-.026H29.4l.014-.025h.03v-.015h.048l.016-.026h.031l.046-.048h.034l.061-.059h.03l.107-.093h.032v-.016l.045-.018.017-.042.107-.066v-.012l.076-.044V20.6l.03-.008V20.58l.034-.009v-.028l.033-.01V20.5l.03-.007v-.03l.046-.02.045-.07.062-.032.016-.023h.031l.015-.051.03.009.015-.027.033.006.014-.026.032.007.015-.028h.046l.063-.06h.031l.063-.059h.031v-.015l.032-.009V20.04h.03l.062-.061h.016v0l.061-.018v-.03l.079-.045v-.024l.062-.03V19.8H31.2V19.77l.122-.077h.062l.016-.051h.062v-.017l.048-.007.013-.025h.03v-.016H31.6l.013-.027.03.006.031-.038.032.007.016-.026h.015l.015-.025.031.006v-.013l.063-.02v-.029l.292-.189V19.2l.048-.019v-.028l.048-.019.051-.052-.041-.066h-.016l-.017-.061-.047-.035-.018-.077h-.016l-.064-.1-.207-.14v-.032l-.048-.024-.016-.03-.031-.006-.05-.068-.032-.007-.076-.086-.034-.049h-.033l-.047-.083-.033-.006-.079-.116H31.36v-.029l-.093-.091v-.028l-.031-.021V17.9l-.034-.02v-.032l-.031-.034-.03-.007-.117-.233-.034-.006-.129-.3-.031-.024V17.22h-.016l-.016-.09h-.016v-.042l0-.03v-.044h-.014v-.045h-.017v-.057h-.015l-.017-.092H30.7v-.028h-.014v-.06h-.017v-.086h-.015v-.073h-.015v-.117H30.62l-.019-.35h-.017v-.044l-.039-.054-.017-.107H30.5l-.018-.062h-.016v-.064h-.016V15.73l-.032-.018v-.075h-.03l-.018-.151h-.015V15.46h-.016v-.1l-.03-.022v-.161l-.032-.019-.006-.453L30.3,14.7v-.172l.032.006.013-.142h.015v-.057h.016v-.074l.031-.01v-.056l.031-.009.014-.1.034.007.043-.154.033.006v-.035H30.6l.123-.2h.034l.046-.093.03.007V13.6h.033l.076-.1.031.006v-.029l.048.009.048-.035v-.027H31.1v-.028h.034l.03-.037.033.006.014-.027h.047v-.008l.08-.042.14-.018v-.034l.159-.013v-.031l.144-.016.045.009v-.015h.034v-.017l.062.011.015-.025.174.018.015-.027.143.027.017-.027.252.048.034-.009.425.094v.027l.35.11v.03l.08.013v.029l.189.079v.029l.156.073v.03l.063.026v.016l.048.006.031.051.049.008V13.8l.032,0v.013l.126.024v.016l.11.02v.015l.079.014v.015l.094.018v.012l.066.013.015.033.063.013v.014l.046.007v.016l.051.008v.014l.061.013V14.1l.224.1v.026l.317.175v.03l.055.025-.02-.023V14.4l-.031-.02v-.028l-.03-.035v-.032l-.034-.018-.014-.06-.034-.02v-.03H35.12l-.015-.044-.034-.02v-.026l-.062-.053V13.99l-.063-.056v-.026L34.83,13.8l-.014-.047-.033-.006V13.72h-.03l-.221-.211-.03-.05-.034-.006-.016-.032h-.031l-.03-.049-.063-.026-.015-.031-.048-.024v-.013l-.092-.046v-.024l-.03-.006v-.015l-.1-.046v-.016L33.97,13.1v-.013l-.034-.006v-.014l-.046-.009v-.015l-.029-.006v-.015l-.049-.007V13l-.03-.007v-.015l-.111-.037v-.014l-.046-.009V12.9l-.062-.011v-.014l-.076-.016v-.016l-.078-.013v-.014l-.25-.06v-.017l-.686-.1v.013l-.079-.013v.013l-.08-.013v.013l-.048-.008v.015l-.061-.013v.015l-.062-.011v.014l-.033-.007v.016h-.093v.016l-.031-.007V12.7l-.046-.007v.015h-.062v.016l-.048-.011v.015l-.093.013v.013H31.7v.014h-.062l-.014.026h-.064l-.015.025h-.032v.017h-.045l-.014.026-.034-.008-.03.038-.032-.006-.031.037H31.3l-.047.048h-.032l-1.668.933h-.063v.014l-.048.006-.015.026-.03-.006v.015l-.062.032-.511.308v.026l-.03.01-.046.048-.032-.006-.031.025Z"/><path class="b" d="M8.3,13.169l.03-.065H8.35l.015-.055H8.38V13.02H8.4v-.035h.016l.03-.079h.015v-.029h.017v-.028H8.49v-.016h.015V12.8h.014v-.029l.033-.024v-.03l.03-.008.014-.055.03-.009.007-.047.031-.009v-.03h.017v-.03l.031-.008V12.5l.03-.009v-.029l.032-.008v-.031l.032-.007v-.029l.044-.02v-.028l.047-.022v-.028l.078-.044v-.028l.032-.01v-.014l.03-.009v-.028l.383-.475h.016l.04-.049h.017V11.6h.016v-.027h.017v-.037H9.54l.03-.082h.015v-.02H9.6V11.4h.016v-.026h.015v-.026h.016v-.025h.016V11.3h.016v-.027l.031-.023v-.029l.031-.009.016-.055.031-.008L9.8,11.1l.027-.014V11.06h.016v-.026l.046-.021.014-.055.047-.019v-.027l.046-.02.078-.088v-.03l.03.008.03-.049h.016v-.028h.016l.046-.049.031-.008v-.031h.014l.046-.048h.03l.407-.442V10.1h.017l.016-.054h.014v-.01H10.8v-.025h.017V9.977h.016V9.956h.014V9.932h.016V9.9h.014V9.88H10.9V9.851l.032-.023V9.8l.032-.008.006-.054.047-.02.014-.055.032-.009V9.627h.014V9.6l.033-.01.013-.04.047-.019V9.5l.046-.02.016-.055.076-.044V9.358l.078-.044V9.285l.233-.257h.014V9h.014l.018-.1h.014V8.88h.017l.013-.083h.017V8.774h.016v-.04h.013l.014-.055h.017V8.643H11.8l.03-.082h.016V8.54h.015V8.517h.017V8.489h.015V8.462h.016V8.436h.015V8.41h.018V8.38l.033-.023V8.328l.033-.01.028-.08.034-.007V8.208l.044-.02.016-.055.032-.01V8.094l.046-.019V8.05h.015l.014-.041L12.269,8V7.971l.061-.031V7.91l.076-.042V7.84l.094-.056V7.756l.181-.282H12.7V7.443h.015l.03-.124h.017V7.3h.016V7.261h.015l.017-.052h.016V7.17h.013l.03-.079h.018V7.067H12.9V7.041h.016V7.016h.016V6.988h.015V6.964h.017V6.939h.016V6.91l.03-.02V6.859l.032-.006.013-.056.031-.009.015-.054.032-.008V6.7l.031-.009V6.661l.031-.01V6.623l.03-.008V6.583l.03,0-.032-.045.048-.019V6.483l.059-.03.016-.041.137-.189V6.149H13.5V6.108h.017V6.063h.016V6.016h.016V5.975l.042.009V5.938H13.6V5.9h.018V5.866h.016l.015-.084h.017V5.767h.015v-.04H13.7l.017-.056h.015V5.649h.015V5.605h.016l.032-.08h.015v-.02h.016V5.479h.016l.031-.081.03-.009V5.352l.033-.01.014-.052.03-.01V5.25l.03-.006V5.213l.031-.008V5.176l.032-.008V5.14l.032-.009V5.1h.016l.017-.041.03-.009V5.027l.044-.021V4.978l.077-.043V4.908l.234-.331V4.535h.016V4.494h.015V4.433h.014V4.412h.017V4.373H14.6V4.348h.016V4.306h.014V4.282h.017V4.237h.016l.014-.055h.015V4.163h.016v-.04l.031-.008V4.07h.016V4.046h.013V4.018l.034-.007V3.982l.031-.024V3.932h.017V3.905h.014V3.879l.03-.007.015-.057.033-.007V3.78l.029-.009v-.03L15,3.732V3.7l.031-.008V3.667l.031-.007V3.629l.046-.019V3.582l.045-.021V3.534l.2-.279h.016v-.04h.016V3.173h.017V3.134h.016V3.076h.016V3.052h.016l.03-.124H15.5V2.9h.016V2.866h.016l.014-.054h.016l.016-.069H15.6l.029-.079h.017V2.647h.014V2.62h.016V2.593h.016V2.564l.032-.023V2.518l.031-.01.014-.054-.015,0,.015-.055.03-.01.016-.052.045-.022V2.279l.032-.01V2.241l.03-.008.016-.041.046-.021V2.143l.031-.009V2.121l.032-.009V2.084l.062-.032v-.03l.412-.553V1.442h.016V1.415l.03-.01V1.379l.031-.023V1.327h.016V1.3l.03-.01.015-.054h.015l.013-.04.034-.009.013-.053.047-.021V1.087L16.8,1.08V1.05l.047-.019V1l.07-.031V.943L16.973.91V.882l.14-.089V.762l.03-.006.03-.04L17.2.725l.125-.109.031.008L17.4.576l.032.007L17.5.52l.03.006.031-.037L17.593.5l.012-.028h.048V.448l.03.006L17.7.428h.032l.015-.02.047,0V.387l.093-.01L17.9.35h.031l.036-.016L18,.341V.324h.03V.316l.031.008L18.074.3l.045.008V.292h.064V.274l.046.012V.268h.062V.251l.048.009V.245l.03.006V.233l.048.01V.233h.024V.222L18.706.17l.032.007L18.754.15h.062l.013-.033h.063V.105l.03.006V.1l.095-.011V.073l.046.006V.065h.062V.048l.048.009V.043h.03V.034H19.3V.023l.044.01V.016l.048.012V.012l.045.008V0L19.5.012V0l.06.012V0l.08.014V0l1.232.285V.3l.047.008V.324l.045.009V.348l.046.008V.37l.046.008V.392h.031v.02l.048.007V.436L21.2.467V.475l.047.01V.5l.094.048V.559L21.4.583l.017.031.06.028L21.5.673h.032l.017.032.031.006.016.031.033.007.015.03.031.007.015.031.031.005.048.066L21.8.894l.062.084h.032V1l.03.02V1.05l.254.289.045.039v.027l.048.037v.029l.029.019.016.048h.017v.029l.031.021.018.045h.013V1.66l.033.035v.029h.017v.031h.016v.029h.016v.028h.014v.029H22.5l.034.093h.016v.041h.014V2h.018v.043H22.6v.031h.016v.044h.016v.043h.017l.016.1h.016l.162.489h.016l.016.058h.014l.016.09h.017v.03h.015l.049.195H23v.042h.015v.044h.016v.059h.015l.034.22V4.683l-.031.194h-.013v.044h-.016v.042l-.131.75h-.016v.175H22.86v.13h-.017V6.1h-.014v.086h-.018v.07h-.018v.058h-.016l-.165.529H22.6l-.014.054h-.016v.044h-.019L22.532,7h-.015v.029H22.5v.043l-.031.009v.029l-.031.024-.166.37-.016.038L22.24,7.5,22.2,7.463,22.177,7.4l-.046-.037v0L22.1,7.338v-.03l-.048-.035-.033-.049H22V7.19l-.063-.055-.08-.116h-.033l-.014-.048H21.8v-.05h-.017V6.874h-.016V6.828h-.015V6.783h-.018V6.736h-.016V6.692H21.7L21.666,6.6H21.65V6.56h-.017V6.533h-.015V6.505H21.6V6.466h-.016V6.435l-.03-.033V6.37l-.032-.02-.034-.093-.049-.037V6.189l-.061-.055-.017-.046-.015-.021V6.04L21.3,6V5.972l-.048-.037V5.906L21.145,5.8l-.017-.045H21.1V5.721l-.063-.04-.078-.1h-.034V5.553L20.844,5.5V5.467L20.8,5.444V5.43l-.046-.024-.017-.031-.095-.047L20.622,5.3l-.048-.024V5.26l-.032-.01-.034-.036h-.031V5.2h-.03l-.019-.032H20.4V5.14l-.033-.007L20.334,5.1H20.3l-.016-.033L20.145,5V4.977l-.03-.006V4.956l-.1-.033-.362-.168-.173-.046V4.7l-.5-.108-.941.013-.049-.009v.016l-.092.012v.013h-.062l-.02.035-.03-.006v.006h-.031v.016l-.032-.016-.033.023h-.03l-.016.026-.093.012-.033.038h-.061l-.017.028h-.046V4.81h-.048v.03l-.08.029v.014h-.03l-.079.072-.062.017V5l-.048.008V5.04l-.032.008v.016l-.032-.007-.065.076v.029H16.9l-.031.052-.031-.006-.017.04H16.8l-.015.038-.033.013-.015.054-.048.019-.03.081-.032.009v.021l-.032.022v.03H16.58v.029h-.016v.029h-.016v.028h-.016v.027h-.015l-.031.081H16.47l-.153.447-.027.284h-.017l-.012.329h.016l.019.294h.016l.021.17h.015v.059h.017V7.37h.014v.057h.014v.044h.015v.041h.016v.044h.017V7.6h.016v.044h.016v.043h.016v.044H16.5l.034.092h.015v.063h.015v.029h.016v.027H16.6v.029h.017V8l.033.033v.03l.031.02.032.093.047.039.018.061.031.019.016.047h.017l.016.048h.033v.03l.049.038v.029l.03.02v.03l.048.036V8.61l.03.007.031.034L17.1,8.7l.062.054V8.8h.017V8.84h.016v.043h.015v.044h.018v.03h.016l.016.09h.015l.034.093h.016v.028h.016v.049h.016v.026h.018v.028l.03.037v.03l.032.018.031.094.049.037.017.062.031.02.016.047.065.054V9.7l.08.072V9.8l.117.107.016.046.03.008.05.111.033.135h.016v.03H18v.042h.018l.031.09h.017V10.4h.017v.03H18.1v.059h.014v.045l.033.022.017.062.033.017.031.093.033.02v.031l.03.019.02.062.029.02v.032l.064.053V11l.064.055v.029l.048.037.018.033.031.006v.015l.033.019v.03l.047.023.022.043H18.7l.015.035h.017v.031l.031.021.018.089H18.8v.027h.016v.043h.017l.032.094h.015v.042h.018V11.7h.015v.029h.016v.027h.017v.03l.03.035v.028l.03.021.031.094L19.08,12l.016.046h.016v.028l.048.039v.03l.066.056v.027l.061.055v.03l.109.108.016.045h.032v.029l.049.024v.016l.08.072v.03l.032.019v.031h.016v.028h.015v.043h.015l.048.117h-.006l-.016.083h-.014v.027h-.016v.044h-.018v.044h-.014V13.1H19.6v.042h-.016l-.013.053h-.018v.044h-.014l-.03.083h-.016v.029h-.017v.044l-.03.007v.03h-.017v.045l-.03.007v.029h-.016v.03l-.031.023v.03l-.031.008-.03.079-.031.01v.029l-.045.02-.016.054-.047.02v.029l-.03.01-.018.039h-.015v.031l-.047.02v.029l-.076.072-.175.233-.024.041H18.75v.034h-.014v.058h-.017v.043H18.7l-.023.039h-.017v.043h-.015v.043h-.016v.007h-.015v.045H18.6v.029h-.017l-.04.079h-.015l-.016.055H18.5v.028h-.014v.044h-.017l-.031.013h.011V14.9h-.016l-.031.082-.028.009-.033.079-.03.01-.031.079-.032.009V15.2l-.029.01v.028l-.034.009v.027h-.017l-.015.041-.031.009v.027l-.046.02v.03l-.031.007v.031l-.031.007.022.018-.03.012V15.5l-.062.1v.026l-.107.069v.028l-.062.03-.323.414h-.015l-.016.054h-.013v-.008H17.39v.044h-.016l0,.072h-.017v.027h-.014v.029h-.018v.028h-.014v.03l-.031.022v.03l-.03.008v.043h-.016l-.016.041-.032.007-.015.056-.031.009v.02h-.015v.031l-.031.009v.028l-.047.021-.014.052-.049.022v.028l-.044.019v.024l-.031.009v.029l-.061.031v.028l-.079.044v.03l-.233.285h-.016v.058H16.5v.028h-.012l-.058.117h-.014l-.016.069h-.014v.028h-.016v.044h-.017l-.021.063h-.014v.03H16.3v.031h-.015v.042l-.034.009v.043l-.027.009v.028h-.017V18H16.2v.028h-.017v.03l-.03.023v.027l-.03.01-.018.055-.03.007-.014.054-.046.023L16,18.313l-.046.019-.017.042-.029.009-.016.055-.047.019v.03l-.076.042v.03l-.077.042v.03l-.261.295-.014.038H15.4v.058h-.014l-.015.055h-.016l-.016.086h-.016l-.015.071H15.29l-.017.054h-.014v.031h-.016v.044h-.016l-.029.083h-.016v.029h-.014l-.032.081-.03.008v.03l-.03.02v.03h-.015v.03h-.016V19.7l-.03.011L15,19.764l-.032.01V19.8l-.031.009v.028l-.029.01v.027l-.031.01v.028l-.03.008v.028l-.048.022V20l-.031.012v.027l-.062.031V20.1l-.077.042v.03l-.063.031v.015l-.031.009-.267.337-.016.025-.03.083h-.013l-.014.055h-.016v.043h-.017V20.8h-.014v.041h-.016l-.055.074h-.016v.031h-.017v.044l-.03.008v.029l-.03.021v.031h-.013V21.1h-.016v.029l-.031.023v.027l-.03.009-.017.057-.029.008v.03l-.032.008v.028l-.031.008-.015.056-.046.018-.014.057-.047.02-.077.086V21.6l-.03-.007-.031.051h-.016v.029l-.03.008v.013l-.034.009v.029l-.169.117v.027l-.032.006-.077.074h-.03l-.017.024-.491.452h-.016v.03H12.6v.027l-.033.023v.031l-.03.007-.015.055-.031.009-.015.053-.046.021-.013.053-.048.022-.015.055-.047.019V22.75l-.047.02V22.8l-.064.031-.014.042h-.016V22.9l-.031-.008-.309.287h-.031l-.014.027-.113.055v.03H11.65l-.061.031v.011h-.031v.027l-.063.019v.015l-.03-.006-.017.026h-.015l-.016.026-.306.3-.032.01-.014.055-.031.009v.029l-.032.01v.028l-.031.009v.027l-.031.009v.027l-.03.009v.029l-.046.02v.022l-.029.011v.027l-.032.009v.014l-.03.009v.027l-.062.033v.03l-.107.064v.031l-.1.062-.016.04h-.031l-.014.041h-.046l-.138.089-.4.4-.063.075v.03l-.03,0-.016.056-.034.009v.029l-.032.009-.028.038V25.2l-.032.009H9.6l-.03.009v.028l-.032.009v.027l-.046.022-.077.086v.029L9.38,25.41l-.015.042-.046.02V25.5l-.079.043-.293.217v.022l-.028.023-.03-.006-.032.037-.156.072v.029l-.047.006-.093.041-.03.037-.024,0-.047.021-.016.025v.024l-.015.025-.108.024v.028H8.259v.014l-.03-.006-.016.026H8.181v.011L8.15,26.2l-.03.011-.944.611h-.03l-.047.048-.029-.006v.015l-.048.02L7,26.924H6.97l-.014.025H6.924l-.031.037-.032-.007-.03.04H6.768l-.029.037H6.707l-.014.025H6.629l-.014.027H6.553l-.016.023H6.5l-.029.024-.034-.007v.013h-.03l-.017.027H6.332V27.2H6.3v.013l-.093.013v.016l-.051-.009v.011H6.128v.012l-.093.012v.016H5.941V27.3L5.91,27.3v.017H5.77V27.3l-.03-.006V27.3H5.686v.014l-.046-.009v.014l-.047-.01v.017l-.048-.009v.013l-.062-.016-.263.023-.156-.013v.013l-.933-.13v-.016L3.8,27.117l-.624-.234v-.012l-.2-.081v-.014H2.944V26.76L2.9,26.752v-.017l-.094-.03v-.016l-.032-.006v-.012l-.047-.01v-.014l-.063-.027V26.6H2.63v-.014l-.046-.009v-.015l-.063-.027V26.52H2.49v-.014L2.444,26.5l-.016-.03-.03-.007v-.013l-.033-.007v-.014l-.032-.008V26.4L2.3,26.4l-.034-.029-.03-.007-.022-.037-.094-.044-.01-.029-.062-.023-.033-.052h-.03l-.018-.042H1.941v-.014L1.9,26.1l-.016-.03-.031-.008-.031-.048H1.785l-.013-.032-.032-.006-.031-.051H1.675l-.062-.084-.031-.007-.079-.1-.032-.006-.2-.233-.126-.124v-.051l-.111-.108v-.028l-.064-.055V25.1L.9,25.048v-.027L.87,25v-.033l-.053-.035V24.9l-.025-.019-.016-.047H.761v-.029L.73,24.788v-.031L.7,24.733V24.7l-.035-.013L.632,24.6.6,24.577l-.032-.092-.03-.02-.015-.059H.505v-.03H.489v-.03H.475v-.029H.458v-.029H.444v-.056l-.03-.018V24.17H.4l-.016-.06H.369v-.043H.352l-.015-.062H.321l-.025-.1H.281v-.029H.265V23.82H.249v-.028H.233v-.057H.217v-.041H.2v-.043H.184l-.016-.1H.153l-.016-.132H.12v-.082H.1v-.056H.086V23.19H.069l-.017-.2H.037L0,22.416H.016l.026-.525H.057v-.074H.07V21.73H.087L.1,21.6H.114v-.066H.131v-.058H.148l.013-.1H.177v-.03H.194v-.044H.208v-.059H.224v-.026H.24L.271,21.1H.286L.3,21.043H.317l.014-.083H.348l.03-.08H.393v-.03H.41l.014-.069.031-.011.012-.043L.5,20.719v-.028l.031-.024v-.029H.547v-.03H.563v-.029h.02L.614,20.5H.629l.016-.041.032,0v-.028l.03-.007v-.029l.048-.023.014-.055.047-.017v-.03l.047-.019v-.032l.07-.042v-.028L1.01,20.1v-.031l.062-.033v-.029l.095-.034v-.028l.107-.068.015-.027.03.006.037-.021V19.8l.156-.072V19.7l.117-.047.016-.026h.03l.032-.037.03.008.033-.039.03.007.016-.026.045-.006v-.013l.031.006.013-.026h.034l.014-.024h.03l.4-.271.233-.244h.016l.108-.107h.015v-.028l.061-.047h.046l.111-.093.446-.321v-.028l.03-.037.032-.023v-.03H3.5v-.027l.03-.01V18.2l.033-.023v-.028L3.6,18.14v-.03l.03-.007v-.027l.031-.039.032-.01.076-.085.086-.092v-.029h.032l.081-.041h.015v-.029l.062-.03V17.7l.03-.009v-.029l.094-.055.182-.195.03.006.094-.084.031.007.026-.079.031,0,.062-.06h.03l.017-.021L4.7,17.2l.032-.039.133-.09.026-.02.01-.016.125-.131.014-.056h.015l.015-.04L5.1,16.8v-.03l.03-.007v-.028L5.2,16.7l.013-.053.03-.01.017-.04.076-.045v-.027l.076-.043V16.45l.153-.1.017-.04.589-.607.033-.009.03-.078.029-.01.032-.082h.016l.015-.041.029-.008.015-.055.048-.019.017-.055.046-.02V15.3l.047-.02v-.029l.033-.009v-.027l.078-.044v-.028l.078-.042v-.028l.667-.949.02-.03.03-.007.017-.056.03-.007.015-.055.032-.009v-.027l.032-.009v-.031l.028.006v-.029l.033-.008v-.031l.044-.02v-.026l.047-.022v-.028l.077-.042v-.03l.077-.043v-.028l.062-.031v-.031l.033-.025.03.009"/><path class="c" d="M19.719,12.84l.044-.165.033,0,.047-.194.029-.01.016-.041H19.9l.018-.04h.029l.062-.1.031.008.06-.117.034.007.059-.135.033.008.062-.1v-.038l.035-.009v-.044l.031-.009.013-.068h.016V11.76l.032-.009.016-.084.032.005.015-.1.03-.013.015-.117.031-.009.015-.117.03-.009v-.057h.018V11.2l.03-.009.014-.172.031-.009v-.117h.017v-.043h.016l.014-.069h.016l.032-.01L20.8,10.7l.048-.006v-.043h.032l.015-.069h.048v-.044l.033.007.03-.1.032.007.014-.085.034.006.106-.24h.03l.015-.083h.033l.015-.1.032.007.012-.13.032.006.045-.2h.017l.015-.141.03-.008.013-.2.03-.007V9.225h.017l.048-.091h.031l.046-.034.075-.16.033.007.062-.135.031.006.408-1.181h.016l.012-.033h.012v.033h.018v.029h.014V7.7h.016v.029h.017v.03h.017V7.8H22.4v.031h.016l.033.089h.014l.287.5v.037l.064.054v.03l.046.036V8.6l.046.038v.029l.033.02v.029l.033.02.016.046h.016v.029l.031.034v.029h.016V8.9l.032.019.016.062h.016l.034.092h.015v.041h.014l.017.06h.017l.267.379v.028l.08.073v.029l.064.055v.028l.046.036v.047l.032.019V9.9l.047.037v.03l.029.021.02.062.029.02.034.09.03.02.017.06h.017l.014.062h.016v.043h.019l.014.059H24l.02.075h.015l.269.38V10.9l.077.072V11l.048.039v.028l.047.037v.03l.03.02.018.048h.015v.029l.034.018.016.062.029.02.035.09h.015v.028h.017v.035H24.7v.03h.016l.032.094h.015v.044h.016v.029H24.8v.043h.017v.029h.012V11.8h.017v.043h.017v.042h.014l.095.146.078.116h.016l.017.045.047.038v.027l.032.021v.028l.047.038v.028l.031.02.018.046h.015l.018.06.028.021v.027l.033.036v.03h.016v.03h.014v.028l.033.021v.079h.016V12.8h.014l.017.06h.016V12.9h.016v.028h.016l.016.076h.016v.043h.015l.192.336.062.055v.029l.047.038v.028l.033.019v.03l.109.179.032.021v.029l.031.034v.028h.012V13.9h.016v.027H26.1v.03h.018l.032.091h.016l.267.38.032.05h.017v.03l.062.054v.074l.048.036v.03l.049.039v.026l.03.023v.028l.032.019.016.046h.014l.019.061.031.02.016.062.079.156H26.9V15.2l-.047.02v.015l-.03-.006v.017l-.03-.01-.032.04h-.017v.032h-.015l-.014.024h-.034l-.014.041-.048.034h-.015v.014l-.031-.006v.015l-.046.021v.029l-.031.01v.029l-.063.03-.078.058v.03h-.016v.029l-.046.02V15.7l-.032-.006-.015.026h-.065l-.156.044-.045.035v.016l-.034-.009v.016l-.022-.019-.031.035h-.031l-.015.025h-.034l-.094.084-.03-.007-.049.052L25.6,16l-.016.038-.047.006v.03l-.047.034h-.016v.015l-.048.006-.015.026-.048-.01-.018.009h-.031v.016l-.033-.016v.012l-.064-.012v.015l-.095.013v.012l-.046-.008V16.2l-.034-.006-.015.027H24.96l-.165.1-.22.106-.35.174-.048.035-.187.168-.045.035-.142.018-.033.038-.142.018-.015.025h-.064l-.029.04-.034-.008L23.47,17h-.062l-.03.038-.063.032-.032,0v.03l-.034-.009-.027.04-.033-.008v.017l-.033-.006v.013l-.032.01V17.2l-.03.01v.014H23.03l-.015.027-.323.024-.185-.233-.048-.036-.016-.046-.063-.056v-.026l-.048-.038v-.031l-.048-.035v-.029l-.03-.021V16.7l-.033-.023-.016-.06-.031-.02-.017-.062h-.016l-.016-.059h-.014v-.033h-.017l-.024-.032h-.014l-.145-.2-.117-.136v-.015l-.061-.055v-.027l-.158-.159v-.03l-.04-.049v-.029l-.032-.02v-.03l-.033-.02v-.028l-.03-.02v-.029l-.031-.02v-.035l-.031-.02v-.028h-.016l-.018-.062-.029-.02-.018-.06h-.016l-.056-.1h-.016v-.051H21.2l-.017-.062h-.016l-.3-.414v-.03l-.079-.07v-.03l-.048-.037V14.5l-.047-.036v-.028l-.03-.02v-.029l-.032-.02-.015-.046H20.6l-.034-.092-.031-.02-.319-.559L20.2,13.6l-.126-.122v-.03l-.064-.054v-.03l-.063-.054v-.03l-.029-.019-.018-.046h-.015v-.029l-.033-.021v-.035l-.031-.02v-.03l-.028-.02v-.029l-.077-.117V12.91h.007Z"/><path class="d" d="M22.293,7.567v.018l-.014-.018Z"/><path class="d" d="M19.7,12.9l0,.006.011,0v-.006Z"/><path class="e" d="M19.639,12.782v-.043h-.016v-.032h-.016v-.03l-.031-.021v-.03l-.081-.073v-.016l-.049-.023v-.028h-.03L19.4,12.44l-.109-.107V12.3l-.063-.055v-.027l-.064-.056v-.03l-.048-.039v-.028H19.1l-.016-.047-.048-.037L19,11.891l-.031-.021v-.029l-.03-.035v-.03h-.015V11.75H18.91v-.031h-.016v-.05h-.017v-.031h-.016l-.032-.094h-.017V11.5H18.8v-.027h-.015l-.175-.249V11.2l-.033-.019V11.16l-.031-.005-.018-.033-.048-.037v-.03L18.412,11v-.03l-.064-.053v-.032l-.029-.02-.02-.061-.03-.02v-.038l-.033-.019-.031-.094-.033-.017-.016-.062-.034-.021V10.49h-.014v-.032h-.019v-.03h-.017V10.4h-.017l-.031-.092h-.017v-.041h-.015v-.029h-.016l-.241-.406V9.781l-.08-.072V9.686l-.065-.055-.017-.047-.03-.02L17.526,9.5l-.048-.038-.033-.094-.031-.019V9.318l-.031-.036V9.254h-.016V9.219h-.016V9.19h-.017V9.16h-.016l-.034-.093h-.015l-.008-.1h-.017l-.017-.03-.015-.048-.1-.191-.05-.081-.038-.008V8.594l-.048-.036V8.527l-.032-.02V8.479L16.9,8.442v-.03h-.032l-.017-.048h-.016l-.017-.047-.023-.031-.017-.06-.047-.038L16.7,8.094l-.03-.019V8.052l-.034-.032V7.986h-.016V7.953H16.6v-.03h-.016V7.89H16.57V7.858h-.015l-.034-.093h-.015V7.718h-.015V7.674h-.016V7.623h-.017V7.576h-.016V7.531h-.016V7.484H16.41V7.44H16.4V7.383h-.014V7.324h-.016V7.266H16.35l-.023-.191h-.016l-.02-.294h-.016l.01-.329H16.3l.027-.284.153-.448H16.5l.03-.081h.016V5.613h.016V5.585h.016V5.558h.015V5.534h.017V5.5l.023-.018V5.454l.031-.009.031-.081.046-.019.016-.055.032-.012.017-.04h.015l.015-.039.032.006.03-.052h.014V5.128l.076-.07.031.007V5.048l.033-.008V5.012L17.1,5V4.977l.062-.017.08-.073h.03V4.878l.08-.028V4.82H17.4V4.8h.048l.015-.028h.061l.033-.038.093-.013.016-.026.03,0,.032-.03.03.006V4.659h.03v0l.031.006.017-.025H17.9V4.619l.093-.012V4.59l.048.009.943-.012.5.108v.014l.172.046.363.168.1.033V4.97l.03.006V4.99l.14.07.017.033h.032l.031.036.034.006V5.15h.03l.019.032h.03V5.2h.031l.033.036.03.007v.013l.048.022.015.033.1.046.016.032.046.023v.014l.049.023v.03l.078.057v.016h.034l.077.1L21.1,5.7v.03h.031l.017.045.109.109v.028l.048.038v.03l.048.038v.056l.032.02.016.047.063.05v.03l.048.037.033.094.032.02V6.4l.03.034v.03h.017v.03h.014v.03h.015v.03h.016V6.58h.017l.046.1.291.5v.029h.015l.032.049.048.035v.03l.033.021v.028l.047.037.017.062.046.036.015.04.015.018v.025l-.01.034h-.017l-.426,1.208H21.8l-.062.134-.031-.007-.076.161-.182.386-.031.007-.015.141h-.016l-.046.2h-.031l-.013.128L21.27,9.97l-.014.1h-.033l-.014.084h-.031l-.107.241h-.033l-.014.084-.032-.007-.029.1-.031.037-.064.076-.03.037-.154.3-.046.18-.03.009v.059H20.59v.051l-.03.009-.015.117-.031.009-.014.117-.031.012-.015.1-.031-.006-.018.084-.03.01V11.8h-.017l-.014.069-.031.01v.044h-.019v.043l-.062.105L20.2,12.06l-.061.134-.034-.007-.059.117-.248.373-.075.159v.072h-.018l-.048-.117Z"/><path class="d" d="M32.314,19.1l.013.013L32.3,19.1l-.008-.018h.023Z"/><path class="d" d="M35.321,14.5h.017v.034l-.058-.073Z"/><path class="f" d="M32.234,19.017l-.017-.062-.047-.035-.018-.077h-.016l-.064-.1-.208-.14v-.031l-.047-.022-.016-.03-.031-.006-.049-.068-.033-.007-.076-.087-.033-.055h-.032l-.048-.083-.033-.006-.079-.117h-.019v-.029l-.093-.09v-.029l-.031-.019v-.035l-.033-.021V17.83l-.062-.027-.117-.249L31,17.548l-.129-.3-.025-.018V17.2h-.016l-.016-.09H30.8v-.042h-.015v-.044h-.014v-.044h-.016v-.057h-.015l-.018-.094H30.7v-.05h-.014v-.058H30.67v-.088h-.015v-.073H30.64v-.117h-.016l-.234-.8-.017-.15h-.015v-.028h-.017v-.1l-.029-.021v-.161l-.051-.038-.006-.454.032-.006v-.161l.031.006.013-.142h.016v-.06h.017v-.072l.03-.011v-.056l.032-.008.014-.1.033.007.044-.154.032.006V13.9l.034.005.124-.2.033.006.046-.094.03.008V13.6h.033l.076-.1.031.006v-.029l.048.009.048-.035V13.42h.033v-.028h.033l.031-.037.032.006.014-.028h.047V13.3l.069-.022.14-.017v-.03l.159-.012v-.034l.143-.017.047.01v-.017h.034v-.015l.06.015.016-.024.173.017.015-.026.146.033.017-.026.252.047.034-.009.425.1V13.3l.35.108v.03l.08.013v.031l.256.079.62.335.106.058v.014l.065.013.016.034.063.011v.016l.046.007v.016l.05.007v.015l.062.013v.016l.224.1v.026l.316.176v.027l.055.027.059.074v.008l.031.006.016.076H35.4v.058h.015v.028h.016v.044h.016v.06h.018v.03h.015v.074l.032.019v.1l.031.023v.13l.032.02v.246l.033.2H35.6v.058h-.016v.249l-.033.009v.13l-.031.008v.1l-.034.008V16.3h-.016v.03h-.016v.059h-.016v.03h-.014l-.016.1H35.39l-.015.07h-.033v.058l-.032-.007V16.7h-.03l-.03.095h-.033l-.03.079-.048.021v.044l-.062.074-.033-.006v.03h-.032v.029l-.031-.008-.116.141-.033-.005v.03l-.142.061v.028l-.094.028v.03l-.267.2-.031-.006v.044l-.033.006v.031l-.048.023V17.7l-.048.022v0l-.06.033-.031.038v.029l-.031-.006-.063.062h-.017v.03l-.044.021-.016.026h-.031l-.465.351H33.4l-.015.041-.032.008v.03l-.029.007v.03l-.031.01v.029l-.048.021V18.5l-.048.02-.015.043-.062.031-.094.071V18.7l-.049.007-.095.085-.031-.008-.016.03L32.8,18.8l-.046.049h-.048l-.016.028h-.03l-.017.024h-.03l-.016.027h-.031v.013h-.048l-.016.029-.031-.006L32.439,19l-.034-.006-.077.086v.031l-.013-.013v-.016h-.024l-.041-.066Z"/><path class="d" d="M22.7,17.279v0H22.7v.008Z"/><path class="g" d="M23.035,17.225H23.1v-.013l.03-.011v-.027l.032-.01V17.15l.03.005v-.017l.034.007.027-.041.033.01v-.029l.031,0,.063-.032.03-.038h.062L23.487,17l.034.007.029-.04h.066l.014-.026.141-.016.034-.038.141-.019.045-.035.188-.168.048-.035.283-.165.047.01v-.031l.221-.1.187-.1h.065l.015-.027.034.006V16.2l.046.009V16.2l.095-.013V16.17l.064.013v-.014l.034.006v-.017h.03l.016-.027.048.011.015-.026.048-.006V16.1h.017l.046-.034v-.03l.048-.006.006-.037.047-.007.047-.05.031.006.093-.083h.034l.015-.027h.032l.03-.035.034.007v-.018l.034.01v-.017l.045-.035.158-.044.25-.173.065-.03v-.029l.03-.009v-.03l.047-.019v-.017l.03.007V15.38h.015l.048-.034.014-.041h.034l.014-.023h.015v-.031h.017l.032-.04.031.008V15.2l.031.006v-.016l.046-.019v-.017h.013v.029l.064.042v.06l.126.1v.03l.033.006v.026l.032.009v.027l.032.007v.029h.032l.08.133h.031l.033.079.031.006v.029l.031.007.117.18.225.246v.032l.064.023v.03l.08.045v.026h.031v.031l.03.006v.029l.08.086.031.006v.03h.033v.028l.031.006.117.18.033.008v.04h.032v.044l.032.007.415.467v.028l.031.005.049.082.031.006v.03h.03l.049.082.031.006v.03h.032l.049.117h.032v.03h.03l.05.111.031.007V17.9l.031.006.018.045h.015l.015.076.035.02v.03l.032.02v.045l.031.021.018.089.031.019v.06h.016l.017.074.03.008.019.15h.017v.03h.015v.086l.033.023.083.274.031.007.032.123h.03l.019.1.028.044.02.149h.03l.051.519h-.015v.233h-.015v.1H29.9v.087l-.033.009-.013.117h-.031l-.076.233H29.71l-.125.21-.031.007h-.016v.042h-.032v.014l-.063.033-.044.036v.043l-.111.037v.024H29.28l-.027.016h-.012l-.03.021h-.03v.01h-.032v.017l-.031-.006-.017.026-.092.011-.016.027-.031-.006-.015.026-.079.045h-.046v.032l-.283.02v.029l-.3-.027v.016l-.032,0v.012L28,21.379l-.57-.162v-.03l-.122-.066-.016-.032h-.032v-.026l-.079-.016V21.03l-.044-.007v-.014l-.16-.029-.016-.033-.174-.032-.017-.033-.116-.023v-.013l-.062-.011V20.82l-.048-.01V20.8l-.079-.015-.017-.033-.079-.014v-.029l-.062-.012-.017-.034-.111-.034V20.6l-.064-.01v-.031l-.066-.025v-.017L26,20.5v-.015l-.077-.043v-.028l-.047-.009v-.022l-.255-.223-.03,0v-.031l-.082-.086h-.03v-.03l-.03-.006v-.029l-.3-.247-.064-.042-.014-.029-.034-.006v-.015L25,19.631v-.015l-.062-.056-.21-.14v-.029l-.03-.006v-.029l-.048-.009v-.034l-.034-.006V19.28l-.175-.192-.03-.007v-.029l-.3-.317V18.7l-.064-.013v-.028L24,18.64v-.014h-.032l-.018-.034-.046-.009-.017-.031-.111-.064v-.029h-.03v-.03l-.08-.045v-.039h-.034v-.031l-.126-.095v-.028l-.032-.007-.079-.13-.033-.007v-.03h-.032l-.033-.08-.03-.005V17.9l-.033-.007v-.042l-.032-.023V17.8h-.017l-.03-.078H23.12v-.046l-.032-.005-.048-.052-.016-.032v-.013l-.048-.01v-.03l-.135-.1v-.029l-.125-.083V17.3l-.026-.015H22.7v-.007l.324-.026Z"/><path class="h" d="M83.067,16.988a12.925,12.925,0,0,1-4.293-3.617,14.473,14.473,0,0,1-4.849,4.111l-.544-.781a18.689,18.689,0,0,0,4.2-5.017c.475-.955.881-1.75-.26-1.606V9.087h2.216c1.895,0,.613,1.834.215,2.709A16.925,16.925,0,0,0,83.78,16.13ZM77.286,21.1V19.967c0-.466-.137-.683-.735-.955v-.623h1.926c.6,0,.824.227.824.973v1.345c.368,2.069,4.173,1.8,8.391.431v1.08c-2.729,1.086-9,2.519-10.406-1.114m10.059-8.076v3.2a4.544,4.544,0,0,1-1.138,3.5H85.33V9.676c0-.59-.281-.493-.824-.493V8.305H86.38c.682,0,.965.241.965,1.021v2.486h2.032v1.211Z"/><path class="h" d="M90.623,14.314V13.309c0-.525-.562-.7-.737-.828v-.653H96.7V10.377H90.235V9.134H98.7v3.92H92.632v1.121c0,1.688,3.28,1.419,7.992.413v1.006c-2.134.666-10,2.8-10-1.276m2.226,6.534V19.459c0-.51-.179-.766-.826-.957v-.686h11v2.966c0,3.839-10.179,4.252-10.179.063m8.182-1.814H94.845v1.655c0,2.342,6.184,2.325,6.184,0Zm.962-1.578h-.874V9.677c0-.652-.233-.445-.824-.494V8.305h1.872c.685,0,.965.242.965,1.022v4.615a4.549,4.549,0,0,1-1.14,3.5"/><path class="h" d="M105.061,19.731V18.519h6.38V16.785c0-.56-.321-.479-.808-.467v-.892h1.542c1,0,1.259.254,1.259,1.132v1.961h6.4v1.212Zm13.965-3.95c-4.536-.86-6.027-2.343-6.483-2.855-1.682,1.516-3.384,2.232-6.589,2.855l-.4-1.02c1.717-.512,5.944-1.882,5.944-4.143h-4.911V9.391h11.8v1.226h-4.928c-.142,1.991,4.419,3.666,5.938,4.158Z"/><path class="h" d="M129.469,10.633c2.786,2.117.56,6.26-3.313,6.083-3.749-.189-5.66-3.632-2.926-6.083h-1.75V9.408h3.925c.051-.433-.02-.478-.544-.45V8.132H126.6c.948,0,.79.606.807,1.276h3.662v1.225Zm-5.24,10.211V19.138c0-.637-.107-.924-.614-1.117v-.666h1.594c1.229,0,1.02.955,1.038,1.783h6.312c0-.637.117-1.035-.651-1.274v-.653H133.4c.911,0,1.137.224,1.137,1.05v2.518c0,3.649-10.3,3.967-10.3.065m1.878-5.337c3.4,0,3.592-4.637.224-4.637a2.324,2.324,0,1,0-.224,4.637Zm6.447,4.842h-6.307v.605c0,2.153,6.307,1.736,6.307-.128Zm2.1-7.327a4.731,4.731,0,0,1-1.134,3.711h-.88V9.681c0-.59-.233-.51-.823-.494V8.305H133.7c.685,0,.96.241.96,1.021v2.486h2.034v1.211Z"/><path class="h" d="M64.019,21.138c0,3.781-1.213,5.285-3.434,5.914-.061.018-.062.083.006.1a7.108,7.108,0,0,0,1.75.191c3.339,0,5.816-2.287,5.816-6.2V8.062H64.019Z"/><path class="h" d="M55.97,14.142c-3.686-2.321-4-2.775-4-3.583,0-.759.835-1.644,3.331-2.386.087-.027.1-.1-.012-.111-3.793-.2-6.467,1.735-6.467,3.912,0,1.584.584,2.566,4.368,4.956,3.713,2.333,4.118,2.784,4.118,3.641,0,1.05-1.2,2.09-3.42,2.749-.091.027-.1.109.013.117,4.126.223,6.684-1.85,6.684-4.023,0-1.49-.584-2.732-4.612-5.27"/><path class="i" d="M51.877,19.906a5.074,5.074,0,0,0-3.161-1.564.083.083,0,0,0-.035,0,.066.066,0,0,0-.031.016.063.063,0,0,0-.02.028.061.061,0,0,0,0,.033,4.771,4.771,0,0,0,4.386,4.872.069.069,0,0,0,.035,0,.094.094,0,0,0,.032-.015.083.083,0,0,0,.022-.065A5.082,5.082,0,0,0,51.878,19.9"/><path class="i" d="M59.258,9.753A5.062,5.062,0,0,0,56.1,8.19a.1.1,0,0,0-.034,0,.081.081,0,0,0-.031.015.084.084,0,0,0-.02.029.085.085,0,0,0,0,.035,5.083,5.083,0,0,0,1.225,3.309A5.085,5.085,0,0,0,60.4,13.141a.083.083,0,0,0,.035,0,.087.087,0,0,0,.03-.016.072.072,0,0,0,.02-.029.08.08,0,0,0,0-.034A5.077,5.077,0,0,0,59.258,9.753Z"/><path class="i" d="M66.614,1.98A6.375,6.375,0,0,0,62.638.011a.089.089,0,0,0-.043,0,.091.091,0,0,0-.039.02.084.084,0,0,0-.025.037.083.083,0,0,0-.006.044,6.383,6.383,0,0,0,1.541,4.159,6.372,6.372,0,0,0,3.976,1.967.093.093,0,0,0,.044,0,.083.083,0,0,0,.062-.056.09.09,0,0,0,.005-.043A6.366,6.366,0,0,0,66.614,1.98Z"/></svg>